<svg width="32" height="32" viewBox="0 0 32 32" fill="none" xmlns="http://www.w3.org/2000/svg">
<path fill-rule="evenodd" clip-rule="evenodd" d="M2.66699 8.00033C2.66699 6.58584 3.2289 5.22928 4.22909 4.22909C5.22928 3.2289 6.58584 2.66699 8.00033 2.66699H24.0003C25.4148 2.66699 26.7714 3.2289 27.7716 4.22909C28.7718 5.22928 29.3337 6.58584 29.3337 8.00033V24.0003C29.3337 25.4148 28.7718 26.7714 27.7716 27.7716C26.7714 28.7718 25.4148 29.3337 24.0003 29.3337H8.00033C6.58584 29.3337 5.22928 28.7718 4.22909 27.7716C3.2289 26.7714 2.66699 25.4148 2.66699 24.0003V8.00033ZM8.00033 5.33366C7.29308 5.33366 6.6148 5.61461 6.11471 6.11471C5.61461 6.6148 5.33366 7.29308 5.33366 8.00033V24.0003C5.33366 24.7076 5.61461 25.3858 6.11471 25.8859C6.6148 26.386 7.29308 26.667 8.00033 26.667H16.0003V17.3337H14.667C14.3134 17.3337 13.9742 17.1932 13.7242 16.9431C13.4741 16.6931 13.3337 16.3539 13.3337 16.0003C13.3337 15.6467 13.4741 15.3076 13.7242 15.0575C13.9742 14.8075 14.3134 14.667 14.667 14.667H16.0003V12.667C16.0003 11.4293 16.492 10.2423 17.3672 9.36716C18.2423 8.49199 19.4293 8.00033 20.667 8.00033H21.467C21.8206 8.00033 22.1597 8.1408 22.4098 8.39085C22.6598 8.6409 22.8003 8.98004 22.8003 9.33366C22.8003 9.68728 22.6598 10.0264 22.4098 10.2765C22.1597 10.5265 21.8206 10.667 21.467 10.667H20.667C20.4043 10.667 20.1443 10.7187 19.9016 10.8192C19.659 10.9197 19.4385 11.0671 19.2528 11.2528C19.0671 11.4385 18.9197 11.659 18.8192 11.9016C18.7187 12.1443 18.667 12.4043 18.667 12.667V14.667H21.467C21.8206 14.667 22.1597 14.8075 22.4098 15.0575C22.6598 15.3076 22.8003 15.6467 22.8003 16.0003C22.8003 16.3539 22.6598 16.6931 22.4098 16.9431C22.1597 17.1932 21.8206 17.3337 21.467 17.3337H18.667V26.667H24.0003C24.7076 26.667 25.3858 26.386 25.8859 25.8859C26.386 25.3858 26.667 24.7076 26.667 24.0003V8.00033C26.667 7.29308 26.386 6.6148 25.8859 6.11471C25.3858 5.61461 24.7076 5.33366 24.0003 5.33366H8.00033Z" fill="#C4B6B6"/>
</svg>
