<svg width="32" height="32" viewBox="0 0 32 32" fill="none" xmlns="http://www.w3.org/2000/svg">
<path fill-rule="evenodd" clip-rule="evenodd" d="M8.00033 2.66699C6.58584 2.66699 5.22928 3.2289 4.22909 4.22909C3.2289 5.22928 2.66699 6.58584 2.66699 8.00033V24.0003C2.66699 25.4148 3.2289 26.7714 4.22909 27.7716C5.22928 28.7718 6.58584 29.3337 8.00033 29.3337H24.0003C25.4148 29.3337 26.7714 28.7718 27.7716 27.7716C28.7718 26.7714 29.3337 25.4148 29.3337 24.0003V8.00033C29.3337 6.58584 28.7718 5.22928 27.7716 4.22909C26.7714 3.2289 25.4148 2.66699 24.0003 2.66699H8.00033ZM5.33366 8.00033C5.33366 7.29308 5.61461 6.6148 6.11471 6.11471C6.6148 5.61461 7.29308 5.33366 8.00033 5.33366H24.0003C24.7076 5.33366 25.3858 5.61461 25.8859 6.11471C26.386 6.6148 26.667 7.29308 26.667 8.00033V24.0003C26.667 24.7076 26.386 25.3858 25.8859 25.8859C25.3858 26.386 24.7076 26.667 24.0003 26.667H8.00033C7.29308 26.667 6.6148 26.386 6.11471 25.8859C5.61461 25.3858 5.33366 24.7076 5.33366 24.0003V8.00033ZM12.0003 14.667C12.0003 14.3134 11.8598 13.9742 11.6098 13.7242C11.3598 13.4741 11.0206 13.3337 10.667 13.3337C10.3134 13.3337 9.97423 13.4741 9.72418 13.7242C9.47413 13.9742 9.33366 14.3134 9.33366 14.667V22.667C9.33366 23.0206 9.47413 23.3598 9.72418 23.6098C9.97423 23.8599 10.3134 24.0003 10.667 24.0003C11.0206 24.0003 11.3598 23.8599 11.6098 23.6098C11.8598 23.3598 12.0003 23.0206 12.0003 22.667V14.667ZM12.667 10.0003C12.667 10.5308 12.4563 11.0395 12.0812 11.4145C11.7061 11.7896 11.1974 12.0003 10.667 12.0003C10.1366 12.0003 9.62785 11.7896 9.25278 11.4145C8.87771 11.0395 8.66699 10.5308 8.66699 10.0003C8.66699 9.46989 8.87771 8.96118 9.25278 8.58611C9.62785 8.21104 10.1366 8.00033 10.667 8.00033C11.1974 8.00033 11.7061 8.21104 12.0812 8.58611C12.4563 8.96118 12.667 9.46989 12.667 10.0003ZM16.0003 13.3337C16.4537 13.3337 16.8537 13.5603 17.0937 13.9043C17.7809 13.5298 18.551 13.3336 19.3337 13.3337C22.2137 13.3337 24.0003 15.9017 24.0003 18.095V22.667C24.0003 23.0206 23.8598 23.3598 23.6098 23.6098C23.3598 23.8599 23.0206 24.0003 22.667 24.0003C22.3134 24.0003 21.9742 23.8599 21.7242 23.6098C21.4741 23.3598 21.3337 23.0206 21.3337 22.667V18.0937C21.3337 17.0697 20.4537 15.999 19.3337 15.999C18.635 15.999 17.863 16.379 17.3337 17.283V22.667C17.3337 23.0206 17.1932 23.3598 16.9431 23.6098C16.6931 23.8599 16.3539 24.0003 16.0003 24.0003C15.6467 24.0003 15.3076 23.8599 15.0575 23.6098C14.8075 23.3598 14.667 23.0206 14.667 22.667V14.667C14.667 14.3134 14.8075 13.9742 15.0575 13.7242C15.3076 13.4741 15.6467 13.3337 16.0003 13.3337Z" fill="#C4B6B6"/>
</svg>
