<svg width="135" height="75" viewBox="0 0 135 75" fill="none" xmlns="http://www.w3.org/2000/svg">
<g clip-path="url(#clip0_2040_1611)">
<path d="M19.0809 13.459H16.7285V15.8109H19.0809V13.459Z" fill="white"/>
<path d="M19.0809 10.9756H16.7285V13.4582H19.0809V10.9756Z" fill="black"/>
<path d="M23.7848 10.9759H26.1372V8.62402H23.7848H21.4324H19.0801V10.9759H21.4324H23.7848Z" fill="black"/>
<path d="M28.6204 10.9756H26.2681V13.4582H28.6204V10.9756Z" fill="black"/>
<path d="M30.973 13.459H28.6206V15.8109H30.973V13.459Z" fill="black"/>
<path d="M33.3255 10.9756H30.9731V13.4582H33.3255V10.9756Z" fill="black"/>
<path d="M38.1606 8.62402H35.6776H35.4162H33.3252V10.9759H35.4162H35.6776H38.1606H40.513V8.62402H38.1606Z" fill="black"/>
<path d="M42.8656 10.9756H40.5132V13.4582H42.8656V10.9756Z" fill="black"/>
<path d="M42.8657 13.459V15.8109V18.1628V22.9973H45.3488V18.1628V15.8109V13.459H42.8657Z" fill="black"/>
<path d="M42.8656 22.9971H40.5132V25.349H42.8656V22.9971Z" fill="black"/>
<path d="M40.5135 25.3486H38.1611V27.7006H40.5135V25.3486Z" fill="black"/>
<path d="M38.1608 27.7002H35.6777V30.0521H38.1608V27.7002Z" fill="black"/>
<path d="M35.6776 30.0527H33.3252V32.4046H35.6776V30.0527Z" fill="black"/>
<path d="M33.3255 32.5352H30.9731V34.8871H33.3255V32.5352Z" fill="black"/>
<path d="M30.973 34.8867H28.6206V37.2386H30.973V34.8867Z" fill="black"/>
<path d="M28.6204 32.5352H26.2681V34.8871H28.6204V32.5352Z" fill="black"/>
<path d="M26.2687 30.0527H23.7856V32.5353H26.2687V30.0527Z" fill="black"/>
<path d="M23.7855 27.7002H21.4331V30.0521H23.7855V27.7002Z" fill="black"/>
<path d="M21.4324 25.3486H19.0801V27.7006H21.4324V25.3486Z" fill="black"/>
<path d="M19.0809 22.9971H16.7285V25.349H19.0809V22.9971Z" fill="black"/>
<path d="M16.7282 20.5147V18.1628V15.8109V13.459H14.2451V15.8109V18.1628V20.5147V22.8667H16.7282V20.5147Z" fill="black"/>
<path d="M40.5136 13.4582V10.9756H38.1612H35.6782H35.1554H33.3258V13.4582H30.9734V15.8101H28.6211V13.4582H26.2687V10.9756H23.7856H21.4333V13.4582H19.0809V15.8101H16.7285V22.9965H19.0809V25.3484H21.4333V27.7003H23.7856V30.0522H26.2687V32.5348H28.6211V34.8867H30.9734V32.5348H33.3258V30.0522H35.6782V27.7003H38.1612V25.3484H40.5136V22.9965H42.866V13.4582H40.5136Z" fill="#CE0002"/>
<path d="M21.4324 10.9756H19.0801V13.3275H21.4324V10.9756Z" fill="white"/>
<path d="M78.6739 13.4585V10.9759H76.3215V8.62402H73.9692H71.6168H69.2644V10.9759H66.7814V13.4585H64.429V10.9759H61.9459V8.62402H59.5936H57.2412H54.8888V10.9759H57.2412V13.4585H54.8888V15.8104H52.5365V13.4585H54.8888V10.9759H52.5365V13.4585H50.1841V15.8104V18.1624V20.5143V22.8662H52.5365V25.3488H54.8888V22.8662H52.5365V20.5143H54.8888H57.2412H59.5936H61.9459H64.429H66.7814H69.1337H71.6168H73.9692H76.3215H78.6739V22.8662H76.3215V25.3488H78.6739V22.8662H81.157V20.5143V18.1624V15.8104V13.4585H78.6739Z" fill="black"/>
<path d="M76.3211 25.3486H73.9688V27.7006H76.3211V25.3486Z" fill="black"/>
<path d="M73.9691 27.7002H71.6167V30.0521H73.9691V27.7002Z" fill="black"/>
<path d="M71.6169 30.0527H69.1338V32.4046H71.6169V30.0527Z" fill="black"/>
<path d="M69.1336 32.4043H66.7812V34.8869H69.1336V32.4043Z" fill="black"/>
<path d="M66.7816 34.8867H64.4292V37.2386H66.7816V34.8867Z" fill="black"/>
<path d="M64.4289 32.4043H61.9458V34.8869H64.4289V32.4043Z" fill="black"/>
<path d="M61.9456 30.0527H59.5933V32.4046H61.9456V30.0527Z" fill="black"/>
<path d="M59.5936 27.7002H57.2412V30.0521H59.5936V27.7002Z" fill="black"/>
<path d="M57.241 25.3486H54.8887V27.7006H57.241V25.3486Z" fill="black"/>
<path d="M54.889 13.459H52.5366V15.8109H54.889V13.459Z" fill="white"/>
<path d="M76.3217 20.5146H73.9693H71.617H69.1339H66.7815H64.4292H61.9461H59.5937H57.2414H54.889H52.5366V22.8666H54.889V25.3491H57.2414V27.7011H59.5937V30.053H61.9461V32.4049H64.4292V34.8875H66.7815V32.4049H69.1339V30.053H71.617V27.7011H73.9693V25.3491H76.3217V22.8666H78.6741V20.5146H76.3217Z" fill="#CE0002"/>
<path d="M57.241 10.9756H54.8887V13.3275H57.241V10.9756Z" fill="white"/>
<path d="M90.6976 11.1064H88.3452V13.4584H90.6976V11.1064Z" fill="black"/>
<path d="M114.483 13.4585V10.9759H112.13V8.62402H109.778H107.425H105.073V10.9759H102.59V13.4585H100.238V10.9759H97.8852V8.75469H95.4022H95.0101H93.0498H90.6974V11.1066H93.0498V13.4585H90.6974V15.8104H88.345V13.4585H85.9927V15.8104V18.1623V20.5143V22.8662H88.345V25.3488H90.6974V27.7007H93.0498V30.0526H94.618H95.4022H95.5328V32.4045H97.8852V34.8871H100.238V37.239H102.59V34.8871H100.238V32.4045H97.8852V30.0526H100.238H102.59H104.942V32.4045H102.59V34.8871H104.942V32.4045H107.425V30.0526H109.778V27.7007H112.13V25.3488H114.483V22.8662H116.966V20.5143V18.1623V15.8104V13.4585H114.483Z" fill="black"/>
<path d="M90.6971 13.459H88.3447V15.8109H90.6971V13.459Z" fill="white"/>
<path d="M102.59 32.4043H100.238V34.8869H102.59V32.4043Z" fill="#CE0002"/>
<path d="M100.237 30.0527H97.8848V32.4046H100.237V30.0527Z" fill="#CE0002"/>
<path d="M102.59 30.0527H100.238V32.4046H102.59V30.0527Z" fill="#CE0002"/>
<path d="M104.942 30.0527H102.59V32.4046H104.942V30.0527Z" fill="#CE0002"/>
<path d="M93.0496 11.1064H90.6973V13.4584H93.0496V11.1064Z" fill="white"/>
<path d="M13.5916 57.3607V55.9234H12.1541V57.3607V58.798V60.2352V61.6725V63.1098V64.5471V65.9844H13.5916V67.4216H12.1541H10.7165H9.27893H7.84137V65.9844H9.27893V64.5471V63.1098V61.6725V60.2352V58.798V57.3607V55.9234H7.84137V57.3607H6.40381V55.9234V54.4861V53.0488H7.84137H9.27893H10.7165H12.1541H13.5916H15.0292V54.4861V55.9234V57.3607H13.5916Z" fill="black"/>
<path d="M24.8306 67.2914H23.393H21.9554H20.5179H19.0803V65.8542H17.7734V64.4169V62.9796V61.5423V60.105V58.6678H19.211V57.2305H20.6486H22.0861H23.5237H24.9612H26.3988V58.6678H27.8364V60.105V61.5423V62.9796V64.4169V65.8542H26.3988V67.2914H24.8306ZM23.5237 65.8542H24.9612V64.4169V62.9796V61.5423V60.105V58.6678H23.5237H22.0861H20.6486V60.105V61.5423V62.9796V64.4169V65.8542H22.0861H23.5237Z" fill="black"/>
<path d="M36.2006 71.4726H34.763H33.4562H32.0186H30.5811V70.0353H32.0186H33.4562H34.763H36.2006V68.7287H37.6382V67.2914H36.2006H34.763H33.4562H32.0186V65.8542H30.5811V64.4169V62.9796V61.5423V60.105V58.6678V57.2305H32.0186H33.4562V58.6678V60.105V61.5423V62.9796V64.4169V65.8542H34.763H36.2006H37.6382V64.4169V62.9796V61.5423V60.105V58.6678V57.2305H39.0757H40.5133V58.6678V60.105V61.5423V62.9796V64.4169V65.8542V67.2914V68.7287H39.0757V70.166H37.6382V71.6033L36.2006 71.4726Z" fill="black"/>
<path d="M49.0079 67.2906H47.5703V65.8533V64.416H49.0079H50.4454V65.8533V67.2906H49.0079Z" fill="black"/>
<path d="M63.1224 67.291H61.6848H60.2472H58.8097H57.3721V65.8537H55.9346V64.4164V62.9791H57.3721H58.8097V64.4164V65.8537H60.2472H61.6848H63.1224V64.4164V62.9791V61.5419H61.6848V60.1046H60.2472H58.8097V58.6673H57.3721V57.23H55.9346V55.7927V54.3554H57.3721V53.0488H58.8097H60.2472H61.6848H63.1224H64.5599V54.4861H65.9975V55.9234V57.3607H64.5599H63.1224V55.9234V54.4861H61.6848H60.2472H58.8097V55.9234V57.3607H60.2472V58.798H61.6848H63.1224V60.2352H64.5599V61.6725H65.9975V63.1098V64.5471V65.9844H64.5599V67.4216L63.1224 67.291Z" fill="black"/>
<path d="M75.929 67.291H74.4915H73.0539V65.8537H71.6163V64.4164V62.9791V61.5419V60.1046V58.6673H70.1788H68.7412V57.23H70.1788H71.6163V55.7927V54.3554H73.0539V53.0488H74.4915V54.4861V55.9234V57.3607H75.929H77.3666V58.798H75.929H74.4915V60.2352V61.6725V63.1098V64.5471V65.9844H75.929V64.5471H77.3666H78.8041V65.9844H77.3666V67.4216L75.929 67.291Z" fill="black"/>
<path d="M85.8615 67.2914H84.4239H82.9864H81.5488V65.8542H82.9864V64.4169V62.9796V61.5423V60.105V58.6678H81.5488V57.2305H82.9864H84.4239V58.6678H85.8615V57.2305H87.2991H88.7366H90.1742V58.6678H91.6117V60.105V61.5423H90.1742H88.7366V60.105V58.6678H87.2991V60.105H85.8615V61.5423V62.9796V64.4169V65.8542H87.2991V67.2914H85.8615Z" fill="black"/>
<path d="M101.413 67.2914H99.9758H98.5383H97.1007H95.6631V65.8542H94.2256V64.4169V62.9796V61.5423V60.105V58.6678H95.6631V57.2305H97.1007H98.5383H99.9758H101.413H102.851V58.6678H104.289V60.105V61.5423H102.851H101.413H99.9758H98.5383H97.1007V62.9796V64.4169V65.8542H98.5383H99.9758H101.413V64.4169H102.851H104.289V65.8542H102.851V67.2914H101.413ZM99.9758 60.2357H101.413V58.7984H99.9758H98.5383H97.1007V60.2357H98.5383H99.9758Z" fill="black"/>
<path d="M115.659 67.2914H114.221V65.8542H112.783V64.4169V62.9796V61.5423H111.346H109.908V62.9796V64.4169V65.8542H111.346H112.783V67.2914H111.346H109.908H108.471V65.8542H107.033V64.4169V62.9796V61.5423H108.471V60.105H109.908H111.346H112.783V58.6678H111.346H109.908H108.471V57.2305H109.908H111.346H112.783H114.221V58.6678H115.659V60.105V61.5423V62.9796V64.4169V65.8542H117.096V67.2914H115.659Z" fill="black"/>
<path d="M124.154 65.8542V64.4169V62.9796V61.5423V60.105H122.716V61.5423V62.9796V64.4169V65.8542V67.2914H121.278H119.841V65.8542V64.4169V62.9796V61.5423V60.105V58.6678V57.2305H121.278H122.716H124.154V58.6678H125.591V57.2305H127.029H128.466V58.6678H129.904V60.105V61.5423V62.9796V64.4169V65.8542V67.2914H128.466H127.029V65.8542V64.4169V62.9796V61.5423V60.105H125.591V61.5423V62.9796V64.4169V65.8542H124.154Z" fill="black"/>
</g>
<defs>
<clipPath id="clip0_2040_1611">
<rect width="135" height="75" fill="white"/>
</clipPath>
</defs>
</svg>
