<svg width="28" height="28" viewBox="0 0 28 28" fill="none" xmlns="http://www.w3.org/2000/svg">
<path fill-rule="evenodd" clip-rule="evenodd" d="M2.66667 14C2.66748 11.5887 3.43734 9.2405 4.86435 7.29678C6.29135 5.35305 8.3011 3.91513 10.6014 3.19205C12.9018 2.46896 15.3728 2.49841 17.6552 3.2761C19.9377 4.05379 21.9126 5.5392 23.2929 7.51637C24.6732 9.49355 25.3869 11.8594 25.3302 14.2701C25.2736 16.6807 24.4495 19.0104 22.9779 20.9206C21.5063 22.8308 19.4637 24.2218 17.1473 24.8914C14.8308 25.561 12.3612 25.4743 10.0973 24.644C10.8666 22.5821 11.6128 20.5118 12.336 18.4333C13.1013 18.98 14.0893 19.3333 15.3333 19.3333C17.9133 19.3333 20.6333 17.6333 21.3067 14.2613C22.156 10.028 18.7653 6 14 6C11.996 6 10.0253 6.80533 8.55067 8.08267C7.07333 9.364 6 11.2093 6 13.3333C6 14.3667 6.312 15.5173 7.05467 16.2747C7.30634 16.5224 7.64525 16.6613 7.99839 16.6616C8.35153 16.6618 8.69064 16.5234 8.94267 16.276C9.18775 16.0311 9.32787 15.7004 9.33334 15.3539C9.33882 15.0075 9.20922 14.6725 8.972 14.42C7.924 13.1133 9.30533 10.9587 10.2973 10.0987C11.328 9.20533 12.6893 8.66667 14 8.66667C17.236 8.66667 19.1787 11.3053 18.6933 13.7387C18.288 15.7573 16.752 16.6667 15.3333 16.6667C14.2427 16.6667 13.656 16.2067 13.28 15.6107C13.4853 14.9653 13.66 14.3787 13.7853 13.9013C14.0413 12.9187 14.196 11.7333 13.312 10.996C12.6547 10.4493 11.8787 10.5693 11.404 10.808C10.52 11.248 10 12.28 10 13.3333C10 13.9213 10.092 14.8333 10.4227 15.776C9.56227 18.3421 8.65634 20.8927 7.70533 23.4267C6.15419 22.3918 4.88264 20.9898 4.00363 19.3453C3.12463 17.7008 2.66537 15.8647 2.66667 14ZM14 0C6.268 0 0 6.268 0 14C0 21.732 6.268 28 14 28C21.732 28 28 21.732 28 14C28 6.268 21.732 0 14 0Z" fill="#C4B6B6"/>
</svg>
