<svg width="32" height="32" viewBox="0 0 32 32" fill="none" xmlns="http://www.w3.org/2000/svg">
<path fill-rule="evenodd" clip-rule="evenodd" d="M9.66449 5.42699C11.2405 3.55499 13.4725 2.66699 16.0005 2.66699C18.5872 2.66699 20.8058 3.71233 22.3525 5.61766C23.7258 7.31099 24.5032 9.59632 24.6445 12.2537L24.7672 12.2723L24.7938 12.2763C25.0205 12.3083 25.2912 12.3483 25.5725 12.403C26.6138 12.6043 28.3912 13.1137 29.0032 15.0217C29.3098 15.9803 29.1565 16.8683 28.6192 17.5723C28.1565 18.179 27.4952 18.5297 27.0218 18.7417C26.7872 18.8483 26.5525 18.939 26.3552 19.015C26.8165 20.263 27.6192 21.547 28.5072 22.7097C29.3432 23.8057 29.1218 25.1937 28.6898 26.099C28.2565 27.0057 27.3205 28.0417 25.9578 28.1003C25.1872 28.1337 24.3778 28.2137 23.5725 28.3603C23.2085 28.427 22.7792 28.5723 22.2458 28.7923C21.9272 28.923 21.6352 29.0537 21.3205 29.1937C21.0698 29.3057 20.8058 29.423 20.5005 29.5537C19.2472 30.0923 17.7072 30.667 16.0005 30.667C14.2938 30.667 12.7538 30.0923 11.5005 29.5537C11.1952 29.423 10.9298 29.3057 10.6805 29.1937C10.3739 29.0556 10.0655 28.9218 9.75515 28.7923C9.22182 28.5723 8.79249 28.4257 8.42849 28.359C7.62315 28.2123 6.81382 28.1337 6.04182 28.1003C4.68049 28.0417 3.74315 27.0057 3.31115 26.099C2.87915 25.1937 2.65782 23.8057 3.49382 22.7097C4.38715 21.539 5.19382 20.2457 5.65382 18.9897C5.45197 18.9103 5.25234 18.8253 5.05515 18.735C4.59382 18.519 3.96715 18.1737 3.50449 17.595C2.98849 16.947 2.76049 16.111 2.96315 15.1537C3.39515 13.1043 5.32315 12.5937 6.34182 12.4017C6.63115 12.3483 6.91249 12.3083 7.14849 12.275L7.19515 12.2683L7.35515 12.2457C7.48715 9.41233 8.25915 7.09499 9.66449 5.42699ZM11.7045 7.14433C10.6872 8.35099 10.0005 10.291 10.0005 13.1443V13.283L9.97115 13.4203C9.82315 14.119 9.28582 14.4457 9.01915 14.571C8.73915 14.703 8.43649 14.7683 8.22315 14.8083C8.01515 14.847 7.78315 14.879 7.57649 14.907L7.51515 14.9163C7.28723 14.9465 7.06006 14.982 6.83382 15.023C5.81382 15.2137 5.62049 15.467 5.57115 15.703C5.53649 15.8723 5.56715 15.907 5.58449 15.9257L5.58982 15.931C5.66049 16.0203 5.83115 16.1537 6.18582 16.319C6.35115 16.3963 6.52582 16.467 6.71915 16.5457L6.76715 16.5643C6.93649 16.631 7.13782 16.7123 7.31515 16.7963C7.48982 16.8763 7.78182 17.023 8.02982 17.2603C8.31782 17.5363 8.66582 18.075 8.49649 18.7857C8.01115 20.827 6.78582 22.7923 5.61515 24.3257C5.59734 24.3705 5.59004 24.4189 5.59382 24.467C5.59382 24.5937 5.62982 24.767 5.71649 24.9497C5.80449 25.1323 5.91649 25.2723 6.02049 25.3563C6.10582 25.4257 6.15382 25.4363 6.15915 25.4363C7.02715 25.4737 7.95915 25.5643 8.90582 25.7363C9.54982 25.8537 10.1858 26.0857 10.7725 26.3283C11.0965 26.4617 11.4685 26.627 11.8298 26.787C12.0818 26.899 12.3285 27.0083 12.5498 27.103C13.7485 27.6163 14.8672 28.0003 16.0005 28.0003C17.1338 28.0003 18.2538 27.6163 19.4512 27.103C19.6725 27.0083 19.9192 26.8977 20.1712 26.787C20.5312 26.627 20.9045 26.4617 21.2272 26.3283C21.8138 26.0857 22.4498 25.8537 23.0938 25.7363C24.0405 25.563 24.9738 25.4737 25.8405 25.4363C25.8485 25.4363 25.8952 25.4257 25.9805 25.3563C26.1094 25.2438 26.213 25.1052 26.2845 24.9497C26.3593 24.7993 26.4011 24.6348 26.4072 24.467C26.4072 24.343 26.3765 24.3137 26.3872 24.3283C25.2165 22.795 23.9898 20.8283 23.5032 18.7857C23.3232 18.0257 23.7352 17.479 24.0192 17.2257C24.2725 17.0017 24.5685 16.8617 24.7485 16.783C24.9285 16.703 25.1312 16.627 25.3045 16.5617L25.3685 16.5363C25.5725 16.4603 25.7552 16.3897 25.9272 16.311C26.2872 16.1497 26.4405 16.0257 26.4925 15.963C26.4878 15.9199 26.4784 15.8774 26.4645 15.8363C26.3432 15.4577 26.0005 15.2017 25.0645 15.0203C24.8525 14.9803 24.6378 14.9483 24.4112 14.9137L24.3605 14.907C24.1495 14.8783 23.9392 14.8446 23.7298 14.8057C23.4582 14.7581 23.1942 14.6747 22.9445 14.5577C22.6645 14.419 22.1712 14.087 22.0298 13.4203L22.0005 13.283V13.143C22.0005 10.543 21.3245 8.58299 20.2818 7.29899C19.2618 6.04033 17.8152 5.33366 16.0005 5.33366C14.1272 5.33366 12.6938 5.96833 11.7032 7.14433H11.7045Z" fill="#C4B6B6"/>
</svg>
